<?xml version="1.0" encoding="UTF-8"?>
<svg id="Capa_1" xmlns="http://www.w3.org/2000/svg" version="1.1" viewBox="0 0 385 203">
  <!-- Generator: Adobe Illustrator 29.8.2, SVG Export Plug-In . SVG Version: 2.1.1 Build 3)  -->
  <defs>
    <style>
      .st0 {
        fill: #93b3bf;
      }

      .st1, .st2 {
        isolation: isolate;
      }

      .st2 {
        font-family: ApfelGrotezk-Regular, 'Apfel Grotezk';
        font-size: 67.7px;
      }
    </style>
  </defs>
  <g id="Capa_11">
    <g class="st1">
      <g class="st1">
        <text class="st2" transform="translate(154.5 102.4)"><tspan x="0" y="0">Global</tspan></text>
      </g>
    </g>
    <g class="st1">
      <g class="st1">
        <text class="st2" transform="translate(154.5 155.5)"><tspan x="0" y="0">Ti</tspan></text>
      </g>
      <g class="st1">
        <text class="st2" transform="translate(207.2 155.5)"><tspan x="0" y="0">ckets</tspan></text>
      </g>
    </g>
    <path class="st0" d="M46.7,127.9c-2.3,0-4.4-.9-6.1-2.6s-2.6-3.8-2.6-6.1.9-4.5,2.6-6.2c1.8-1.7,3.8-2.5,6.1-2.5s4.5.8,6.2,2.5,2.5,3.8,2.5,6.2-.8,4.4-2.5,6.1-3.8,2.6-6.2,2.6Z"/>
    <path class="st0" d="M46.7,72c-2.3,0-4.4-.9-6.1-2.6s-2.6-3.8-2.6-6.1.9-4.5,2.6-6.2,3.8-2.5,6.1-2.5,4.5.8,6.2,2.5,2.5,3.8,2.5,6.2-.8,4.4-2.5,6.1-3.8,2.6-6.2,2.6Z"/>
    <path class="st0" d="M67.7,155.8c-2.3,0-4.4-.9-6.1-2.6s-2.6-3.8-2.6-6.1.9-4.5,2.6-6.2,3.8-2.5,6.1-2.5,4.5.8,6.2,2.5,2.5,3.8,2.5,6.2-.8,4.4-2.5,6.1-3.8,2.6-6.2,2.6Z"/>
    <path class="st0" d="M67.7,100c-2.3,0-4.4-.9-6.1-2.6s-2.6-3.8-2.6-6.1.9-4.5,2.6-6.2,3.8-2.5,6.1-2.5,4.5.8,6.2,2.5,2.5,3.8,2.5,6.2-.8,4.4-2.5,6.1-3.8,2.6-6.2,2.6Z"/>
    <path class="st0" d="M88.6,127.9c-2.3,0-4.4-.9-6.1-2.6s-2.6-3.8-2.6-6.1.9-4.5,2.6-6.2c1.8-1.7,3.8-2.5,6.1-2.5s4.5.8,6.2,2.5,2.5,3.8,2.5,6.2-.8,4.4-2.5,6.1-3.8,2.6-6.2,2.6Z"/>
    <path class="st0" d="M88.6,72c-2.3,0-4.4-.9-6.1-2.6s-2.6-3.8-2.6-6.1.9-4.5,2.6-6.2,3.8-2.5,6.1-2.5,4.5.8,6.2,2.5,2.5,3.8,2.5,6.2-.8,4.4-2.5,6.1-3.8,2.6-6.2,2.6Z"/>
    <path class="st0" d="M109.6,155.8c-2.3,0-4.4-.9-6.1-2.6s-2.6-3.8-2.6-6.1.9-4.5,2.6-6.2,3.8-2.5,6.1-2.5,4.5.8,6.2,2.5,2.5,3.8,2.5,6.2-.8,4.4-2.5,6.1-3.8,2.6-6.2,2.6Z"/>
    <path class="st0" d="M109.6,100c-2.3,0-4.4-.9-6.1-2.6s-2.6-3.8-2.6-6.1.9-4.5,2.6-6.2,3.8-2.5,6.1-2.5,4.5.8,6.2,2.5,2.5,3.8,2.5,6.2-.8,4.4-2.5,6.1-3.8,2.6-6.2,2.6Z"/>
    <path class="st0" d="M130.5,127.9c-2.3,0-4.4-.9-6.1-2.6s-2.6-3.8-2.6-6.1.9-4.5,2.6-6.2c1.8-1.7,3.8-2.5,6.1-2.5s4.5.8,6.2,2.5,2.5,3.8,2.5,6.2-.8,4.4-2.5,6.1-3.8,2.6-6.2,2.6Z"/>
    <path class="st0" d="M130.5,72c-2.3,0-4.4-.9-6.1-2.6s-2.6-3.8-2.6-6.1.9-4.5,2.6-6.2,3.8-2.5,6.1-2.5,4.5.8,6.2,2.5,2.5,3.8,2.5,6.2-.8,4.4-2.5,6.1-3.8,2.6-6.2,2.6Z"/>
  </g>
</svg>